# xmcd
#
# Track frame offsets: 
#        150
#        21540
#        40035
#        62035
#        77270
#        91447
#        123152
#        139102
#        152547
#        179512
#        200022
#        216780
#
# Disc length: 3233 seconds
#
# Revision: 1
# Processed by: cddbd v1.5.2PL0 Copyright (c) Steve Scherf et al.
# Submitted via: ExactAudioCopy v0.99pb5
#
DISCID=9f0c9f0c
DTITLE=Larry Garner - Once Upon The Blues
DYEAR=2006
DGENRE=Blues
TTITLE0=Where Blues Turn Black
TTITLE1=Slower Traffic Keep Right
TTITLE2=A Real Gambling Woman
TTITLE3=That Was Her Dance
TTITLE4=I Won't Tell Your Mama
TTITLE5=I Ain't The One
TTITLE6=Virus Blues
TTITLE7=Edward Had A Shotgun
TTITLE8=If She Tells You No
TTITLE9=The Muddy River
TTITLE10=Klepto
TTITLE11=Nothing But Life
EXTD=
EXTT0=
EXTT1=
EXTT2=
EXTT3=
EXTT4=
EXTT5=
EXTT6=
EXTT7=
EXTT8=
EXTT9=
EXTT10=
EXTT11=
PLAYORDER=
